<?xml version="1.0" encoding="UTF-8"?>
<svg version="1.1" xmlns="http://www.w3.org/2000/svg" width="512" height="512">
<path d="M0 0 C3.03460439 1.4249315 5.73571971 3.23684805 8.5 5.125 C10.18870637 6.23520201 11.87887558 7.34318131 13.5703125 8.44921875 C14.45493164 9.0323584 15.33955078 9.61549805 16.25097656 10.21630859 C20.89451207 13.22924558 25.63606252 16.07791347 30.375 18.9375 C38.56050769 23.89923762 46.71940417 28.9007701 54.8503418 33.95141602 C59.80373106 37.02672091 64.76714625 40.08485436 69.7421875 43.125 C71.48725832 44.19299535 73.23220751 45.26118921 74.97714233 46.32940674 C76.63158908 47.34081996 78.28805058 48.34893521 79.94458008 49.35693359 C80.97736084 49.98937988 82.0101416 50.62182617 83.07421875 51.2734375 C83.97744873 51.82435059 84.88067871 52.37526367 85.8112793 52.94287109 C86.86355713 53.62172363 87.91583496 54.30057617 89 55 C89.81128168 55.4408342 90.62256336 55.8816684 91.45842934 56.33586121 C98.43999285 60.49042344 98.43999285 60.49042344 99.91281223 64.46061134 C100.23831649 67.4397895 100.24993284 70.27646426 100.15112305 73.27197266 C100.15418961 74.38662399 100.15725616 75.50127533 100.16041565 76.64970398 C100.15855183 80.32312143 100.0857173 83.9914485 100.01171875 87.6640625 C99.99559511 90.22038496 99.98375997 92.77673775 99.97602844 95.33309937 C99.95017956 100.685108 99.89426763 106.03542174 99.80932617 111.38671875 C99.68968015 118.92547412 99.63217563 126.46373261 99.58846223 134.00326085 C99.52359931 144.66483414 99.42772993 155.32617104 99.2722168 165.98681641 C99.25404404 167.55635826 99.25404404 167.55635826 99.23550415 169.15760803 C99.21967789 170.12199295 99.20385162 171.08637787 99.18754578 172.07998657 C99.17547938 172.91433542 99.16341299 173.74868427 99.15098095 174.60831642 C98.99088245 177.14443073 98.55185793 179.52201188 98 182 C99.09699219 182.61488281 100.19398438 183.22976562 101.32421875 183.86328125 C102.77866735 184.67964917 104.23309323 185.49605756 105.6875 186.3125 C106.40873047 186.71662109 107.12996094 187.12074219 107.87304688 187.53710938 C108.57880859 187.93349609 109.28457031 188.32988281 110.01171875 188.73828125 C110.70442871 189.12193848 111.39713867 189.5055957 112.11083984 189.90087891 C114 191 114 191 116.64453125 192.91796875 C119.00509527 194.27540428 119.00509527 194.27540428 121.79296875 193.48828125 C125.79912596 191.62915104 129.53976414 189.47738591 133.3125 187.1875 C134.8279758 186.28750914 136.3435993 185.38776693 137.859375 184.48828125 C140.19743533 183.09016311 142.51851589 181.67556948 144.828125 180.23046875 C148.71679583 177.87143242 152.08001668 176.12379815 156.79931641 176.44970703 C165.98032364 178.7454681 174.73044126 185.03493484 182.8125 189.8125 C183.85277344 190.42561035 184.89304687 191.0387207 185.96484375 191.67041016 C188.03159751 192.88937178 190.09754296 194.10970516 192.16259766 195.33154297 C194.63284247 196.78410303 197.1140406 198.21313168 199.60546875 199.62890625 C215.89820495 208.95510679 225.0113678 221.35532171 230.29257202 239.36557007 C231.76181984 244.83698276 232.92743408 250.37895762 234.12890625 255.9140625 C234.40711716 257.1794133 234.68532806 258.4447641 234.9719696 259.74845886 C235.25813277 261.05102802 235.54416787 262.35362531 235.83007812 263.65625 C235.97342496 264.30919194 236.11677179 264.96213388 236.26446247 265.63486195 C236.99227675 268.96463092 237.7042901 272.29660879 238.38793945 275.63574219 C241.61424338 291.31782583 244.24847964 303.59750174 257 314 C276.53397176 334.17623906 280.37080163 354.0015408 280.31567383 381.10400391 C280.31248673 384.38867589 280.33613751 387.67246831 280.36132812 390.95703125 C280.36359908 393.06249888 280.36430556 395.1679689 280.36328125 397.2734375 C280.372491 398.2464682 280.38170074 399.2194989 280.39118958 400.22201538 C280.35259501 405.91323162 279.84520018 410.01928768 277 415 C275.15795898 416.75219727 275.15795898 416.75219727 273.05859375 418.00390625 C271.85952393 418.73504639 271.85952393 418.73504639 270.63623047 419.48095703 C269.76627441 419.98224121 268.89631836 420.48352539 268 421 C267.09266113 421.53866699 266.18532227 422.07733398 265.25048828 422.63232422 C262.2016384 424.42573516 259.1347885 426.18456495 256.0625 427.9375 C254.3326544 428.92992138 252.60281157 429.92234765 250.87313843 430.91506958 C249.09060128 431.93764091 247.30731803 432.95890134 245.52392578 433.97998047 C240.00810212 437.13969911 234.50479254 440.32111722 229 443.5 C226.83339031 444.75009875 224.6667235 446.00009851 222.5 447.25 C221.4275 447.86875 220.355 448.4875 219.25 449.125 C214.375 451.9375 214.375 451.9375 209.5 454.75 C208.42709717 455.3689917 207.35419434 455.9879834 206.2487793 456.62573242 C204.08621417 457.8733474 201.92361661 459.12090616 199.76098633 460.3684082 C193.17000375 464.1704972 186.57999993 467.97427123 179.99169922 471.78100586 C177.80849284 473.04069691 175.62394459 474.29806551 173.43798828 475.55297852 C168.25787373 478.52800692 163.09911307 481.52960544 157.98046875 484.609375 C156.55891479 485.45302612 156.55891479 485.45302612 155.10864258 486.3137207 C153.34612131 487.3606555 151.59133318 488.42077508 149.84643555 489.49682617 C145.24111888 492.21024425 142.67118787 493.13951192 137.22851562 492.76245117 C131.87930273 493.33265101 127.09648608 496.99081547 122.5625 499.6875 C120.94118164 500.62625977 120.94118164 500.62625977 119.28710938 501.58398438 C115.31720531 503.88311014 111.35153127 506.18787943 107.41918945 508.55078125 C101.1022945 512.25221598 96.32996861 513.19458419 89 512 C76.25713732 507.6089995 67.62462678 497.17673373 61.1640625 485.75390625 C55.45140301 473.90811232 48.64623216 456.36041734 53 443 C52.23171875 442.79761719 51.4634375 442.59523438 50.671875 442.38671875 C45.51045256 440.43745815 40.97896693 437.6340619 36.25 434.8125 C34.11370126 433.55137159 31.97696619 432.29098207 29.83984375 431.03125 C28.17091064 430.04511719 28.17091064 430.04511719 26.46826172 429.0390625 C20.60863408 425.58608619 14.70807499 422.20357946 8.8125 418.8125 C6.65211351 417.56941046 4.49194189 416.3259474 2.33203125 415.08203125 C1.42171143 414.55843018 0.5113916 414.0348291 -0.42651367 413.49536133 C-3 412 -3 412 -5.45825195 410.18237305 C-7.99517241 408.69550917 -7.99517241 408.69550917 -10.93579102 409.60180664 C-14.08773623 411.0400339 -17.04445901 412.60821053 -20.02734375 414.37109375 C-21.14947266 415.02787109 -22.27160156 415.68464844 -23.42773438 416.36132812 C-24.59795764 417.05287567 -25.76787749 417.74493689 -26.9375 418.4375 C-47.11073575 430.35741082 -47.11073575 430.35741082 -57 428 C-70.63413872 423.44115113 -79.26340218 411.44800097 -85.46875 399.0703125 C-91 387.20385174 -91 387.20385174 -91 381 C-92.04800781 381.63808594 -93.09601563 382.27617187 -94.17578125 382.93359375 C-95.55459332 383.76838473 -96.93350477 384.60301161 -98.3125 385.4375 C-99.00279297 385.85837891 -99.69308594 386.27925781 -100.40429688 386.71289062 C-101.07138672 387.11572266 -101.73847656 387.51855469 -102.42578125 387.93359375 C-103.03848877 388.30540771 -103.65119629 388.67722168 -104.2824707 389.06030273 C-110.05717843 392.21976969 -117.41303711 391.99815783 -123.625 390.26953125 C-138.00094293 383.88790274 -147.24025688 369.30409766 -152.875 355.25 C-153.60774372 353.17512638 -154.31905886 351.09244667 -155 349 C-155.24621094 348.27941406 -155.49242187 347.55882812 -155.74609375 346.81640625 C-157.99034663 338.87639433 -157.15861936 330.16889721 -157 322 C-157.6496875 321.76796875 -158.299375 321.5359375 -158.96875 321.296875 C-162.9955912 319.57405119 -166.71527965 317.4463144 -170.5 315.25 C-171.24636719 314.83234375 -171.99273437 314.4146875 -172.76171875 313.984375 C-178.49053847 310.65861771 -182.30236731 307.44142458 -185.29296875 301.37890625 C-186.36914843 296.23583761 -186.3282546 291.17748059 -186.3125 285.9375 C-186.32861328 284.86177734 -186.34472656 283.78605469 -186.36132812 282.67773438 C-186.36197266 281.63810547 -186.36261719 280.59847656 -186.36328125 279.52734375 C-186.36626221 278.58624756 -186.36924316 277.64515137 -186.37231445 276.67553711 C-185.91112676 273.36133648 -185.01558164 271.67582331 -183 269 C-180.97329684 268.22549685 -178.92676202 267.50189144 -176.86816406 266.81665039 C-173.47726004 264.90168963 -171.41975193 263.50709327 -170.34709167 259.65577316 C-169.34166668 251.78918835 -169.83453734 243.83594542 -170.109375 235.93359375 C-170.15209305 233.33490062 -170.18831575 230.73609328 -170.21832275 228.13722229 C-170.31872775 220.60153157 -170.50136921 213.06959933 -170.69668579 205.53587341 C-170.95695498 195.29203859 -171.15359755 185.04819035 -171.29175568 174.8019886 C-171.35857896 170.97913394 -171.47676789 167.16017427 -171.59857178 163.33872986 C-171.64041604 160.99595756 -171.68025786 158.65314835 -171.71777344 156.31030273 C-171.78919556 154.71810158 -171.78919556 154.71810158 -171.86206055 153.09373474 C-171.90767739 146.02906161 -171.90767739 146.02906161 -169.26412487 143.03198528 C-167.23951718 141.49172536 -165.22945222 140.21929232 -163 139 C-162.11352783 138.41919678 -161.22705566 137.83839355 -160.3137207 137.23999023 C-159.52570068 136.76762939 -158.73768066 136.29526855 -157.92578125 135.80859375 C-156.56827759 134.9894751 -156.56827759 134.9894751 -155.18334961 134.15380859 C-154.23596924 133.58742676 -153.28858887 133.02104492 -152.3125 132.4375 C-150.27823526 131.21031575 -148.24439097 129.98243431 -146.2109375 128.75390625 C-145.18323242 128.13402832 -144.15552734 127.51415039 -143.09667969 126.87548828 C-138.19193112 123.90495229 -133.31282514 120.8935127 -128.4375 117.875 C-127.57616455 117.34318115 -126.7148291 116.8113623 -125.82739258 116.26342773 C-122.35219185 114.111159 -118.9018363 111.95178741 -115.53515625 109.6328125 C-113 108 -113 108 -111 108 C-111.01571045 106.75911621 -111.0314209 105.51823242 -111.04760742 104.23974609 C-111.10204088 99.62164845 -111.13639892 95.003579 -111.16479492 90.38525391 C-111.17985098 88.38911159 -111.20030027 86.39300219 -111.22631836 84.39697266 C-111.26284161 81.52237815 -111.27975837 78.64822228 -111.29296875 75.7734375 C-111.30845261 74.88570648 -111.32393646 73.99797546 -111.33988953 73.08334351 C-111.34126633 67.97685484 -110.93736204 64.37264981 -108 60 C-106.15136719 58.34106445 -106.15136719 58.34106445 -104.046875 57.05078125 C-103.24701172 56.55400879 -102.44714844 56.05723633 -101.62304688 55.54541016 C-100.75744141 55.0354248 -99.89183594 54.52543945 -99 54 C-98.10861328 53.47067871 -97.21722656 52.94135742 -96.29882812 52.39599609 C-93.29475323 50.63777724 -90.27462904 48.91010575 -87.25 47.1875 C-84.92787391 45.85634915 -82.60618153 44.52447261 -80.28515625 43.19140625 C-79.68794266 42.8486969 -79.09072906 42.50598755 -78.47541809 42.15289307 C-71.85587317 38.35047173 -65.27004422 34.49101656 -58.6875 30.625 C-57.79552414 30.10122269 -57.79552414 30.10122269 -56.88552856 29.56686401 C-54.46000623 28.14248353 -52.03455024 26.71799046 -49.60935974 25.29304504 C-45.07608636 22.63001753 -40.53872276 19.97403968 -36 17.3203125 C-34.03068811 16.16826618 -32.06143218 15.01612427 -30.0921936 13.86395264 C-28.84093567 13.13215931 -27.58945719 12.40074292 -26.33773804 11.66973877 C-24.59300989 10.65070974 -22.84922422 9.63006758 -21.10546875 8.609375 C-19.510979 7.6802832 -19.510979 7.6802832 -17.88427734 6.73242188 C-15.3939905 5.23664775 -13.01016511 3.65375411 -10.61328125 2.015625 C-6.92227166 -0.27101224 -4.38095855 -0.78508328 0 0 Z " fill="#9EE4FD" transform="translate(209,0)"/>
<path d="M0 0 C3.03460439 1.4249315 5.73571971 3.23684805 8.5 5.125 C10.18870637 6.23520201 11.87887558 7.34318131 13.5703125 8.44921875 C14.45493164 9.0323584 15.33955078 9.61549805 16.25097656 10.21630859 C20.89451207 13.22924558 25.63606252 16.07791347 30.375 18.9375 C38.56050769 23.89923762 46.71940417 28.9007701 54.8503418 33.95141602 C59.80373106 37.02672091 64.76714625 40.08485436 69.7421875 43.125 C71.48725832 44.19299535 73.23220751 45.26118921 74.97714233 46.32940674 C76.63158908 47.34081996 78.28805058 48.34893521 79.94458008 49.35693359 C80.97736084 49.98937988 82.0101416 50.62182617 83.07421875 51.2734375 C83.97744873 51.82435059 84.88067871 52.37526367 85.8112793 52.94287109 C86.86355713 53.62172363 87.91583496 54.30057617 89 55 C89.81128168 55.4408342 90.62256336 55.8816684 91.45842934 56.33586121 C98.43999285 60.49042344 98.43999285 60.49042344 99.91281223 64.46061134 C100.23831649 67.4397895 100.24993284 70.27646426 100.15112305 73.27197266 C100.15418961 74.38662399 100.15725616 75.50127533 100.16041565 76.64970398 C100.15855183 80.32312143 100.0857173 83.9914485 100.01171875 87.6640625 C99.99559511 90.22038496 99.98375997 92.77673775 99.97602844 95.33309937 C99.95017956 100.685108 99.89426763 106.03542174 99.80932617 111.38671875 C99.68968015 118.92547412 99.63217563 126.46373261 99.58846223 134.00326085 C99.52359931 144.66483414 99.42772993 155.32617104 99.2722168 165.98681641 C99.25404404 167.55635826 99.25404404 167.55635826 99.23550415 169.15760803 C99.21967789 170.12199295 99.20385162 171.08637787 99.18754578 172.07998657 C99.17547938 172.91433542 99.16341299 173.74868427 99.15098095 174.60831642 C99 177 99 177 98 182 C103.28 184.97 108.56 187.94 114 191 C114 191.66 114 192.32 114 193 C113.36835938 193.35078613 112.73671875 193.70157227 112.0859375 194.06298828 C98.33297865 201.70985139 84.66630949 209.48090039 71.08984375 217.4375 C65.86599472 220.49832925 60.62904109 223.53567021 55.38232422 226.55712891 C53.2199671 227.80540311 51.06138535 229.06024146 48.90673828 230.32177734 C43.82120916 233.28814432 38.72459271 236.17786835 33.47442627 238.84098816 C31.63200635 239.77952386 29.80201468 240.73884181 27.97412109 241.70532227 C25.67483762 242.91273973 23.35382597 244.07994315 21.01025391 245.19897461 C17.83451045 246.89848392 15.5322154 248.44124203 13 251 C12.19889069 253.64950354 12.19889069 253.64950354 12.21533203 256.70922852 C12.14411385 258.58477669 12.14411385 258.58477669 12.07145691 260.49821472 C12.04501841 261.99876595 12.02142209 263.49936878 12 265 C11.98249506 265.85779367 11.96499012 266.71558735 11.94695473 267.59937477 C11.79823028 274.99036192 11.73776145 282.38125615 11.68359375 289.7734375 C11.66298445 292.15239795 11.64198705 294.53135507 11.62062073 296.91030884 C11.56581018 303.12765783 11.51622254 309.34503758 11.46777344 315.56243896 C11.4172561 321.92446584 11.36172893 328.28644885 11.30664062 334.6484375 C11.19956188 347.09892073 11.09800837 359.54944229 11 372 C7.0948303 370.47930129 3.5538693 368.70707958 -0.0859375 366.62109375 C-0.66019974 366.29294174 -1.23446198 365.96478973 -1.8261261 365.62669373 C-3.67777543 364.56711601 -5.52652892 363.50261116 -7.375 362.4375 C-8.64815341 361.70647339 -9.92134689 360.97551656 -11.19458008 360.24462891 C-19.85877761 355.26398239 -28.48949473 350.23984567 -37 345 C-37.9075 344.47535156 -38.815 343.95070313 -39.75 343.41015625 C-45.09158175 340.18295061 -48.33809828 337.14092953 -50 331 C-50.56986751 327.00110213 -50.86547645 323.03570663 -51 319 C-51.66386719 319.433125 -52.32773438 319.86625 -53.01171875 320.3125 C-54.33623047 321.1478125 -54.33623047 321.1478125 -55.6875 322 C-56.99267578 322.8353125 -56.99267578 322.8353125 -58.32421875 323.6875 C-61.31063202 325.15236841 -62.72808726 325.5176759 -66 325 C-68.75 323.62890625 -68.75 323.62890625 -72 321.5625 C-73.33321917 320.73209688 -74.66800178 319.90420124 -76.00390625 319.078125 C-76.77492676 318.59923828 -77.54594727 318.12035156 -78.34033203 317.62695312 C-83.20322728 314.65225752 -88.1320427 311.78862044 -93.05395508 308.91305542 C-94.95657505 307.80135444 -96.85828452 306.68811055 -98.75976562 305.57446289 C-106.50154949 301.04113411 -114.24972784 296.51880052 -122 292 C-122.94327148 291.44948975 -123.88654297 290.89897949 -124.85839844 290.33178711 C-129.82098641 287.43555684 -134.78566953 284.54303917 -139.75485229 281.65814209 C-142.41557418 280.11230884 -145.07429419 278.56305402 -147.73266602 277.01318359 C-149.02218193 276.26237515 -150.31252999 275.51299384 -151.60375977 274.76513672 C-153.40861892 273.71955988 -155.21044678 272.66892891 -157.01171875 271.6171875 C-158.04772217 271.01503418 -159.08372559 270.41288086 -160.15112305 269.79248047 C-162.96221042 268.02377676 -165.52262249 266.21305183 -168 264 C-168 263.34 -168 262.68 -168 262 C-168.66 262 -169.32 262 -170 262 C-170.95130941 259.14607177 -171.14027237 257.31627301 -171.17408752 254.35173035 C-171.18702347 253.39706375 -171.19995941 252.44239716 -171.21328735 251.45880127 C-171.22226044 250.41302917 -171.23123352 249.36725708 -171.24047852 248.28979492 C-171.25347488 247.18708755 -171.26647125 246.08438019 -171.27986145 244.94825745 C-171.39150171 234.79031698 -171.45237989 224.63165914 -171.49662876 214.47321606 C-171.52987675 206.96730106 -171.58946094 199.462592 -171.68413979 191.95719451 C-171.75627326 186.03858726 -171.78459023 180.12024258 -171.79795647 174.20119667 C-171.81022387 171.68569836 -171.83630122 169.17022828 -171.87640572 166.65501976 C-171.92973114 163.13515255 -171.93288732 159.6185728 -171.92407227 156.09838867 C-171.95126343 155.05868927 -171.97845459 154.01898987 -172.00646973 152.94778442 C-171.91703995 146.02535513 -171.91703995 146.02535513 -169.25140476 143.04487133 C-167.23040334 141.50781802 -165.21996967 140.22690757 -163 139 C-161.67029175 138.12879517 -161.67029175 138.12879517 -160.3137207 137.23999023 C-159.52570068 136.76762939 -158.73768066 136.29526855 -157.92578125 135.80859375 C-156.56827759 134.9894751 -156.56827759 134.9894751 -155.18334961 134.15380859 C-154.23596924 133.58742676 -153.28858887 133.02104492 -152.3125 132.4375 C-150.27823526 131.21031575 -148.24439097 129.98243431 -146.2109375 128.75390625 C-145.18323242 128.13402832 -144.15552734 127.51415039 -143.09667969 126.87548828 C-138.19193112 123.90495229 -133.31282514 120.8935127 -128.4375 117.875 C-127.57616455 117.34318115 -126.7148291 116.8113623 -125.82739258 116.26342773 C-122.35219185 114.111159 -118.9018363 111.95178741 -115.53515625 109.6328125 C-113 108 -113 108 -111 108 C-111.01571045 106.75911621 -111.0314209 105.51823242 -111.04760742 104.23974609 C-111.10204088 99.62164845 -111.13639892 95.003579 -111.16479492 90.38525391 C-111.17985098 88.38911159 -111.20030027 86.39300219 -111.22631836 84.39697266 C-111.26284161 81.52237815 -111.27975837 78.64822228 -111.29296875 75.7734375 C-111.30845261 74.88570648 -111.32393646 73.99797546 -111.33988953 73.08334351 C-111.34126633 67.97685484 -110.93736204 64.37264981 -108 60 C-106.15136719 58.34106445 -106.15136719 58.34106445 -104.046875 57.05078125 C-103.24701172 56.55400879 -102.44714844 56.05723633 -101.62304688 55.54541016 C-100.75744141 55.0354248 -99.89183594 54.52543945 -99 54 C-98.10861328 53.47067871 -97.21722656 52.94135742 -96.29882812 52.39599609 C-93.29475323 50.63777724 -90.27462904 48.91010575 -87.25 47.1875 C-84.92787391 45.85634915 -82.60618153 44.52447261 -80.28515625 43.19140625 C-79.68794266 42.8486969 -79.09072906 42.50598755 -78.47541809 42.15289307 C-71.85587317 38.35047173 -65.27004422 34.49101656 -58.6875 30.625 C-58.09284943 30.27581512 -57.49819885 29.92663025 -56.88552856 29.56686401 C-54.46000623 28.14248353 -52.03455024 26.71799046 -49.60935974 25.29304504 C-45.07608636 22.63001753 -40.53872276 19.97403968 -36 17.3203125 C-34.03068811 16.16826618 -32.06143218 15.01612427 -30.0921936 13.86395264 C-28.84093567 13.13215931 -27.58945719 12.40074292 -26.33773804 11.66973877 C-24.59300989 10.65070974 -22.84922422 9.63006758 -21.10546875 8.609375 C-19.510979 7.6802832 -19.510979 7.6802832 -17.88427734 6.73242188 C-15.3939905 5.23664775 -13.01016511 3.65375411 -10.61328125 2.015625 C-6.92227166 -0.27101224 -4.38095855 -0.78508328 0 0 Z " fill="#E2B376" transform="translate(209,0)"/>
<path d="M0 0 C1.09223376 1.15533093 2.18441078 2.31071553 3.27636719 3.46630859 C7.19687917 6.95478682 12.06684242 9.26347729 16.625 11.8125 C18.98264538 13.15083772 21.3394152 14.49062776 23.6953125 15.83203125 C24.2997821 16.17517365 24.90425171 16.51831604 25.52703857 16.87185669 C31.90171323 20.49651182 38.20187008 24.24420492 44.5 28 C54.55316849 33.98484402 64.66131934 39.86519653 74.81713867 45.67407227 C79.74517962 48.50295695 84.63764104 51.36560529 89.453125 54.3828125 C90.28126709 54.90125732 91.10940918 55.41970215 91.96264648 55.95385742 C93.47660628 56.90973625 94.98448768 57.87534563 96.48461914 58.8527832 C101.39290486 61.99907078 101.39290486 61.99907078 107 62 C109.69171957 60.72386923 109.69171957 60.72386923 112.25 59 C116.94444444 56 116.94444444 56 118 56 C118.03867187 57.2684375 118.03867187 57.2684375 118.078125 58.5625 C118.13484375 59.696875 118.1915625 60.83125 118.25 62 C118.29640625 63.11375 118.3428125 64.2275 118.390625 65.375 C119.33924304 71.01806116 120.65824648 75.13096385 125.25195312 78.79736328 C128.1539432 80.66976768 131.10887342 82.38012869 134.125 84.0625 C135.21780273 84.69446289 136.31060547 85.32642578 137.43652344 85.97753906 C139.75340668 87.31438003 142.0730208 88.64304236 144.40136719 89.95947266 C148.03456415 92.01478804 151.64771813 94.10365437 155.2578125 96.19921875 C160.64323671 99.32286797 166.03869268 102.42855678 171.44238281 105.52050781 C172.28639648 106.00874023 173.13041016 106.49697266 174 107 C174.92417725 107.51570557 175.84835449 108.03141113 176.80053711 108.56274414 C179 110 179 110 179.48828125 112.04296875 C179.32552083 114.02864583 179.16276042 116.01432292 179 118 C179.84046875 118.24363281 180.6809375 118.48726563 181.546875 118.73828125 C185.40724141 120.14879975 188.75814098 122.05985465 192.25 124.1875 C193.76618915 125.09498405 195.28316888 126.00114806 196.80078125 126.90625 C197.62916504 127.40125 198.45754883 127.89625 199.31103516 128.40625 C204.32667799 131.37902251 209.38415821 134.27943771 214.4375 137.1875 C216.68881307 138.48435593 218.94011501 139.78123118 221.19140625 141.078125 C222.32078613 141.72845703 223.45016602 142.37878906 224.61376953 143.04882812 C227.89880622 144.94169137 231.18216436 146.83742707 234.46484375 148.734375 C246.25356516 155.54547656 258.05965559 162.324642 269.88760376 169.06729126 C279.27044933 174.41774783 288.61497039 179.83139723 297.92431641 185.30883789 C299.7218973 186.36354915 301.52914576 187.40198554 303.34643555 188.42236328 C306 190 306 190 308.64770508 191.97998047 C311.49395733 193.9533062 313.61694259 195.22354203 317 196 C322.10867577 194.53776313 326.2079316 191.81033345 330.5625 188.875 C332.31721264 187.75598315 334.07956758 186.64981395 335.84275818 185.54421997 C337.42822498 184.54011769 338.99507974 183.50680538 340.56079102 182.47216797 C343 181 343 181 345 181 C344.82597656 179.94941406 344.65195312 178.89882813 344.47265625 177.81640625 C343.95966635 173.45391102 343.68942724 169.24406609 345 165 C348.54308236 161.29145969 352.82759469 159.40940416 357.41064453 157.27001953 C362.5333509 154.75744943 367.39421794 151.76137944 372.3125 148.875 C374.56114082 147.57706948 376.81116638 146.28153533 379.0625 144.98828125 C380.77179688 144.00529053 380.77179688 144.00529053 382.515625 143.00244141 C384.8459901 141.66293956 387.17677675 140.32417421 389.5078125 138.98583984 C392.94369318 137.01310416 396.37835604 135.03825777 399.8125 133.0625 C400.90022705 132.43706299 401.9879541 131.81162598 403.10864258 131.16723633 C409.78422373 127.31615765 416.38367807 123.3767495 422.875 119.22265625 C425 118 425 118 427 118 C427.33 122.62 427.66 127.24 428 132 C429.19238281 131.28972656 430.38476562 130.57945312 431.61328125 129.84765625 C433.17959858 128.91912083 434.74600972 127.99074363 436.3125 127.0625 C437.09818359 126.59392578 437.88386719 126.12535156 438.69335938 125.64257812 C439.8293457 124.9706543 439.8293457 124.9706543 440.98828125 124.28515625 C441.68477783 123.87144775 442.38127441 123.45773926 443.09887695 123.03149414 C445 122 445 122 448 121 C448.08765069 125.02069425 448.14061018 129.0411401 448.1875 133.0625 C448.22520508 134.7630957 448.22520508 134.7630957 448.26367188 136.49804688 C448.3640097 147.97000455 448.3640097 147.97000455 445 153 C442.20015105 155.36579951 439.17061127 157.17303729 436 159 C435.09266113 159.53866699 434.18532227 160.07733398 433.25048828 160.63232422 C430.2016384 162.42573516 427.1347885 164.18456495 424.0625 165.9375 C422.3326544 166.92992138 420.60281157 167.92234765 418.87313843 168.91506958 C417.09060128 169.93764091 415.30731803 170.95890134 413.52392578 171.97998047 C408.00810212 175.13969911 402.50479254 178.32111722 397 181.5 C394.83339031 182.75009875 392.6667235 184.00009851 390.5 185.25 C389.4275 185.86875 388.355 186.4875 387.25 187.125 C384 189 380.75 190.875 377.5 192.75 C376.42709717 193.3689917 375.35419434 193.9879834 374.2487793 194.62573242 C372.08621417 195.8733474 369.92361661 197.12090616 367.76098633 198.3684082 C361.17000375 202.1704972 354.57999993 205.97427123 347.99169922 209.78100586 C345.80849284 211.04069691 343.62394459 212.29806551 341.43798828 213.55297852 C336.25787373 216.52800692 331.09911307 219.52960544 325.98046875 222.609375 C324.55891479 223.45302612 324.55891479 223.45302612 323.10864258 224.3137207 C321.34612131 225.3606555 319.59133318 226.42077508 317.84643555 227.49682617 C313.24111888 230.21024425 310.67118787 231.13951192 305.22851562 230.76245117 C299.87930273 231.33265101 295.09648608 234.99081547 290.5625 237.6875 C289.48162109 238.31333984 288.40074219 238.93917969 287.28710938 239.58398438 C283.31720531 241.88311014 279.35153127 244.18787943 275.41918945 246.55078125 C269.1022945 250.25221598 264.32996861 251.19458419 257 250 C244.25713732 245.6089995 235.62462678 235.17673373 229.1640625 223.75390625 C223.45140301 211.90811232 216.64623216 194.36041734 221 181 C220.23171875 180.79761719 219.4634375 180.59523438 218.671875 180.38671875 C213.51045256 178.43745815 208.97896693 175.6340619 204.25 172.8125 C202.11370126 171.55137159 199.97696619 170.29098207 197.83984375 169.03125 C196.72722168 168.37382812 195.61459961 167.71640625 194.46826172 167.0390625 C188.60863408 163.58608619 182.70807499 160.20357946 176.8125 156.8125 C174.65211351 155.56941046 172.49194189 154.3259474 170.33203125 153.08203125 C169.42171143 152.55843018 168.5113916 152.0348291 167.57348633 151.49536133 C165 150 165 150 162.54174805 148.18237305 C160.00482759 146.69550917 160.00482759 146.69550917 157.06420898 147.60180664 C153.91226377 149.0400339 150.95554099 150.60821053 147.97265625 152.37109375 C146.85052734 153.02787109 145.72839844 153.68464844 144.57226562 154.36132812 C143.40204236 155.05287567 142.23212251 155.74493689 141.0625 156.4375 C120.88926425 168.35741082 120.88926425 168.35741082 111 166 C97.36586128 161.44115113 88.73659782 149.44800097 82.53125 137.0703125 C77 125.20385174 77 125.20385174 77 119 C75.95199219 119.63808594 74.90398437 120.27617187 73.82421875 120.93359375 C72.44540668 121.76838473 71.06649523 122.60301161 69.6875 123.4375 C68.99720703 123.85837891 68.30691406 124.27925781 67.59570312 124.71289062 C66.92861328 125.11572266 66.26152344 125.51855469 65.57421875 125.93359375 C64.96151123 126.30540771 64.34880371 126.67722168 63.7175293 127.06030273 C57.94282157 130.21976969 50.58696289 129.99815783 44.375 128.26953125 C29.99905707 121.88790274 20.75974312 107.30409766 15.125 93.25 C14.39225628 91.17512638 13.68094114 89.09244667 13 87 C12.75378906 86.27941406 12.50757812 85.55882812 12.25390625 84.81640625 C10.00965337 76.87639433 10.84138064 68.16889721 11 60 C10.02546875 59.65195312 10.02546875 59.65195312 9.03125 59.296875 C5.0044088 57.57405119 1.28472035 55.4463144 -2.5 53.25 C-3.24636719 52.83234375 -3.99273437 52.4146875 -4.76171875 51.984375 C-10.49053847 48.65861771 -14.30236731 45.44142458 -17.29296875 39.37890625 C-18.36914843 34.23583761 -18.3282546 29.17748059 -18.3125 23.9375 C-18.32861328 22.86177734 -18.34472656 21.78605469 -18.36132812 20.67773438 C-18.36197266 19.63810547 -18.36261719 18.59847656 -18.36328125 17.52734375 C-18.36626221 16.58624756 -18.36924316 15.64515137 -18.37231445 14.67553711 C-17.92540227 11.46392356 -16.89404697 9.61323095 -15 7 C-12.1875 4.98046875 -12.1875 4.98046875 -9 3.1875 C-7.948125 2.58292969 -6.89625 1.97835938 -5.8125 1.35546875 C-3 0 -3 0 0 0 Z " fill="#4E427D" transform="translate(41,262)"/>
<path d="M0 0 C4.71177766 0.47970587 7.74557265 2.49092948 11.703125 4.9765625 C12.45239258 5.4293457 13.20166016 5.88212891 13.97363281 6.34863281 C17.22418394 8.31862125 20.43099122 10.33704406 23.609375 12.421875 C24.89328125 13.25332031 24.89328125 13.25332031 26.203125 14.1015625 C26.91984375 14.59140625 27.6365625 15.08125 28.375 15.5859375 C30.44848066 16.57048499 30.44848066 16.57048499 32.6484375 15.80859375 C36.67317607 13.71774767 40.63363305 11.52722928 44.578125 9.2890625 C46.18355845 8.37914672 47.79027757 7.47149461 49.3984375 6.56640625 C50.45828857 5.96493774 50.45828857 5.96493774 51.53955078 5.35131836 C53.453125 4.3515625 53.453125 4.3515625 56.453125 3.3515625 C56.783125 14.5715625 57.113125 25.7915625 57.453125 37.3515625 C58.773125 37.6815625 60.093125 38.0115625 61.453125 38.3515625 C61.453125 39.0115625 61.453125 39.6715625 61.453125 40.3515625 C63.103125 40.6815625 64.753125 41.0115625 66.453125 41.3515625 C66.453125 42.0115625 66.453125 42.6715625 66.453125 43.3515625 C67.443125 43.3515625 68.433125 43.3515625 69.453125 43.3515625 C69.453125 44.0115625 69.453125 44.6715625 69.453125 45.3515625 C71.103125 45.6815625 72.753125 46.0115625 74.453125 46.3515625 C74.453125 47.0115625 74.453125 47.6715625 74.453125 48.3515625 C76.103125 48.6815625 77.753125 49.0115625 79.453125 49.3515625 C79.453125 50.0115625 79.453125 50.6715625 79.453125 51.3515625 C80.443125 51.3515625 81.433125 51.3515625 82.453125 51.3515625 C82.453125 52.0115625 82.453125 52.6715625 82.453125 53.3515625 C84.103125 53.6815625 85.753125 54.0115625 87.453125 54.3515625 C87.453125 55.0115625 87.453125 55.6715625 87.453125 56.3515625 C88.319375 56.5371875 88.319375 56.5371875 89.203125 56.7265625 C91.47648267 57.35805074 93.3784779 58.24014441 95.453125 59.3515625 C95.453125 60.0115625 95.453125 60.6715625 95.453125 61.3515625 C96.5978125 61.5371875 96.5978125 61.5371875 97.765625 61.7265625 C100.453125 62.3515625 100.453125 62.3515625 103.453125 64.3515625 C103.453125 65.0115625 103.453125 65.6715625 103.453125 66.3515625 C104.02933594 66.465 104.60554688 66.5784375 105.19921875 66.6953125 C107.66278524 67.41260742 109.38204992 68.43740098 111.515625 69.8515625 C113.90971458 71.43230495 115.69872096 72.43342782 118.453125 73.3515625 C118.453125 74.0115625 118.453125 74.6715625 118.453125 75.3515625 C119.18724609 75.62919434 119.92136719 75.90682617 120.67773438 76.19287109 C123.23869469 77.26204048 125.48938729 78.45574517 127.859375 79.890625 C129.08998657 80.6326416 129.08998657 80.6326416 130.34545898 81.38964844 C131.63625366 82.1751709 131.63625366 82.1751709 132.953125 82.9765625 C134.28355835 83.77755371 134.28355835 83.77755371 135.64086914 84.59472656 C139.61613843 86.99366436 143.57459264 89.41131187 147.48046875 91.921875 C148.06570312 92.29489746 148.6509375 92.66791992 149.25390625 93.05224609 C150.78360223 94.03294916 152.3042772 95.02768352 153.82421875 96.0234375 C156.77547696 97.5144149 158.19393252 97.63827891 161.453125 97.3515625 C163.71969533 96.41312727 163.71969533 96.41312727 165.91015625 95 C167.18838257 94.22897949 167.18838257 94.22897949 168.49243164 93.44238281 C169.40758545 92.87616211 170.32273926 92.30994141 171.265625 91.7265625 C173.25989118 90.51996437 175.25470122 89.31426479 177.25 88.109375 C178.27802734 87.48450195 179.30605469 86.85962891 180.36523438 86.21582031 C185.21567312 83.28745613 190.11542188 80.44558426 195.015625 77.6015625 C197.02887882 76.42878528 199.04189395 75.25559823 201.0546875 74.08203125 C202.60591309 73.17783447 202.60591309 73.17783447 204.18847656 72.25537109 C209.47648693 69.1716211 214.76291273 66.0851895 220.04614258 62.99325562 C221.27133259 62.27640594 222.49675419 61.55995194 223.72241211 60.84390259 C230.41963966 56.93028578 237.09143318 52.98140695 243.7109375 48.9375 C244.86921375 48.23232694 246.02749809 47.52716716 247.18579102 46.82202148 C249.35772391 45.49599427 251.52512444 44.16250612 253.68725586 42.82055664 C255.13563843 41.93678345 255.13563843 41.93678345 256.61328125 41.03515625 C257.45511963 40.51493896 258.29695801 39.99472168 259.16430664 39.45874023 C261.453125 38.3515625 261.453125 38.3515625 265.453125 38.3515625 C267.37597656 39.17773437 267.37597656 39.17773437 269.34375 40.3203125 C270.05273438 40.72636719 270.76171875 41.13242188 271.4921875 41.55078125 C272.58660156 42.19466797 272.58660156 42.19466797 273.703125 42.8515625 C274.44820313 43.28082031 275.19328125 43.71007812 275.9609375 44.15234375 C277.79610484 45.21109414 279.6252189 46.2803245 281.453125 47.3515625 C281.453125 48.0115625 281.453125 48.6715625 281.453125 49.3515625 C280.82148438 49.70234863 280.18984375 50.05313477 279.5390625 50.41455078 C265.78610365 58.06141389 252.11943449 65.83246289 238.54296875 73.7890625 C233.31911972 76.84989175 228.08216609 79.88723271 222.83544922 82.90869141 C220.6730921 84.15696561 218.51451035 85.41180396 216.35986328 86.67333984 C211.27433416 89.63970682 206.17771771 92.52943085 200.92755127 95.19255066 C199.08513135 96.13108636 197.25513968 97.09040431 195.42724609 98.05688477 C193.12796262 99.26430223 190.80695097 100.43150565 188.46337891 101.55053711 C185.28763545 103.25004642 182.9853404 104.79280453 180.453125 107.3515625 C179.65201569 110.00106604 179.65201569 110.00106604 179.66845703 113.06079102 C179.59723885 114.93633919 179.59723885 114.93633919 179.52458191 116.84977722 C179.49814341 118.35032845 179.47454709 119.85093128 179.453125 121.3515625 C179.43562006 122.20935617 179.41811512 123.06714985 179.40007973 123.95093727 C179.25135528 131.34192442 179.19088645 138.73281865 179.13671875 146.125 C179.11610945 148.50396045 179.09511205 150.88291757 179.07374573 153.26187134 C179.01893518 159.47922033 178.96934754 165.69660008 178.92089844 171.91400146 C178.8703811 178.27602834 178.81485393 184.63801135 178.75976562 191 C178.65268688 203.45048323 178.55113337 215.90100479 178.453125 228.3515625 C174.5479553 226.83086379 171.0069943 225.05864208 167.3671875 222.97265625 C166.79292526 222.64450424 166.21866302 222.31635223 165.6269989 221.97825623 C163.77534957 220.91867851 161.92659608 219.85417366 160.078125 218.7890625 C158.80497159 218.05803589 157.53177811 217.32707906 156.25854492 216.59619141 C147.59434739 211.61554489 138.96363027 206.59140817 130.453125 201.3515625 C129.545625 200.82691406 128.638125 200.30226563 127.703125 199.76171875 C122.36154325 196.53451311 119.11502672 193.49249203 117.453125 187.3515625 C116.88325749 183.35266463 116.58764855 179.38726913 116.453125 175.3515625 C115.78925781 175.7846875 115.12539062 176.2178125 114.44140625 176.6640625 C113.55839844 177.2209375 112.67539063 177.7778125 111.765625 178.3515625 C110.89550781 178.9084375 110.02539062 179.4653125 109.12890625 180.0390625 C106.14249298 181.50393091 104.72503774 181.8692384 101.453125 181.3515625 C98.703125 179.98046875 98.703125 179.98046875 95.453125 177.9140625 C94.11990583 177.08365938 92.78512322 176.25576374 91.44921875 175.4296875 C90.67819824 174.95080078 89.90717773 174.47191406 89.11279297 173.97851562 C84.24989772 171.00382002 79.3210823 168.14018294 74.39916992 165.26461792 C72.49654995 164.15291694 70.59484048 163.03967305 68.69335938 161.92602539 C60.95157551 157.39269661 53.20339716 152.87036302 45.453125 148.3515625 C44.03821777 147.52579712 44.03821777 147.52579712 42.59472656 146.68334961 C37.63213859 143.78711934 32.66745547 140.89460167 27.69827271 138.00970459 C25.03755082 136.46387134 22.37883081 134.91461652 19.72045898 133.36474609 C18.43094307 132.61393765 17.14059501 131.86455634 15.84936523 131.11669922 C14.04450608 130.07112238 12.24267822 129.02049141 10.44140625 127.96875 C9.40540283 127.36659668 8.36939941 126.76444336 7.30200195 126.14404297 C4.49091458 124.37533926 1.93050251 122.56461433 -0.546875 120.3515625 C-0.546875 119.6915625 -0.546875 119.0315625 -0.546875 118.3515625 C-1.206875 118.3515625 -1.866875 118.3515625 -2.546875 118.3515625 C-3.5081103 115.4678566 -3.67250892 113.66464608 -3.67385864 110.66964722 C-3.67667847 109.70775482 -3.67949829 108.74586243 -3.68240356 107.75482178 C-3.68037933 106.70119446 -3.6783551 105.64756714 -3.67626953 104.56201172 C-3.67802185 103.45127289 -3.67977417 102.34053406 -3.68157959 101.19613647 C-3.68598937 97.51615854 -3.68306356 93.83622845 -3.6796875 90.15625 C-3.68036069 87.60702505 -3.68133085 85.05780017 -3.68258667 82.50857544 C-3.68406238 77.16375051 -3.68200773 71.81894284 -3.67724609 66.47412109 C-3.67179836 60.28757366 -3.67357078 54.10105916 -3.6790725 47.91451252 C-3.68414879 41.96912986 -3.68362252 36.02375747 -3.68069077 30.07837296 C-3.68002138 27.54489258 -3.68085033 25.01141138 -3.68317032 22.47793198 C-3.68569499 18.94603968 -3.68185913 15.41421169 -3.67626953 11.88232422 C-3.67930588 10.29581055 -3.67930588 10.29581055 -3.68240356 8.67724609 C-3.67958374 7.72099335 -3.67676392 6.7647406 -3.67385864 5.7795105 C-3.67348162 4.94365355 -3.67310459 4.10779659 -3.67271614 3.24661064 C-3.47707789 0.30048429 -2.94499156 0.40651724 0 0 Z " fill="#E1B274" transform="translate(41.546875,143.6484375)"/>
<path d="M0 0 C3.19921875 1.1875 3.19921875 1.1875 6.6875 3 C7.34250488 3.3395874 7.99750977 3.6791748 8.67236328 4.02905273 C15.98960339 7.88499529 23.18061116 11.98301895 30.375 16.0625 C31.27392471 16.57043091 31.27392471 16.57043091 32.19100952 17.08862305 C50.76449989 27.61219261 64.74907547 38.150879 71.29296875 59.3515625 C72.64063126 64.39971267 73.80840336 69.49004145 74.9765625 74.58203125 C76.0191531 79.11720256 77.11874439 83.63707948 78.31298828 88.13500977 C79.50074969 92.69319442 80.43102333 97.25688966 81.28125 101.890625 C84.36824567 117.74234774 87.93274409 127.73395827 100.19775391 138.39013672 C111.72649877 148.68823258 119.60704313 162.70786607 122 178 C122.0389623 179.66621119 122.05121149 181.3341203 122 183 C120.9790625 182.7834375 120.9790625 182.7834375 119.9375 182.5625 C116.64414111 181.93185681 113.31949471 181.47421353 110 181 C109.67 186.61 109.34 192.22 109 198 C98.1919309 192.84160338 87.93462018 186.95236731 77.6171875 180.87890625 C70.77983407 176.85723424 63.89362102 172.92393916 57 169 C48.30540298 164.04724801 39.63497217 159.05627439 31 154 C18.71461135 146.8065748 6.35449552 139.74659365 -6.01586914 132.70068359 C-9.34544529 130.80312755 -12.67272354 128.90158539 -16 127 C-16.09358587 112.14409753 -16.16404885 97.28821797 -16.20724869 82.43208313 C-16.22784344 75.53356043 -16.25590444 68.63522127 -16.30175781 61.73681641 C-16.34599851 55.07783489 -16.36914681 48.4190833 -16.37950897 41.75994873 C-16.38689229 39.22105918 -16.40131015 36.6821799 -16.42292023 34.14337158 C-16.45201172 30.58363415 -16.45595342 27.02468118 -16.45410156 23.46484375 C-16.46848267 22.41827103 -16.48286377 21.3716983 -16.49768066 20.29341125 C-16.45457984 12.62253037 -14.95065888 7.18990149 -9.6875 1.5 C-6.1702758 -0.46310188 -4.00338778 -0.30025408 0 0 Z " fill="#5CAFF8" transform="translate(236,253)"/>
<path d="M0 0 C0.99 0.33 1.98 0.66 3 1 C3.93554688 2.98681641 3.93554688 2.98681641 4.71875 5.6015625 C5.00951416 6.55853027 5.30027832 7.51549805 5.59985352 8.50146484 C5.89690186 9.53223145 6.1939502 10.56299805 6.5 11.625 C6.96780884 13.20788818 6.96780884 13.20788818 7.44506836 14.82275391 C9.37168431 21.46559161 10.96248125 28.04114583 12.1875 34.84765625 C13.4483015 41.62446432 15.20105623 48.30375152 16.84399414 54.99560547 C18.38462764 61.30486649 19.78760966 67.61923126 21 74 C20.33806641 74.3810791 19.67613281 74.7621582 18.99414062 75.15478516 C2.96584348 84.38512076 -13.03145186 93.66656807 -29 103 C-32.95785474 105.31332038 -36.91610756 107.62595589 -40.875 109.9375 C-42.34271851 110.79456543 -42.34271851 110.79456543 -43.84008789 111.66894531 C-52.49671771 116.71811626 -61.1784572 121.72336025 -69.87084961 126.71069336 C-74.57087991 129.41379358 -79.2547232 132.12999303 -83.8671875 134.98046875 C-84.56900146 135.41319092 -85.27081543 135.84591309 -85.99389648 136.29174805 C-87.24410613 137.06894784 -88.48893475 137.85490759 -89.72680664 138.65161133 C-91.33984375 139.65625 -91.33984375 139.65625 -94 141 C-94.99 140.67 -95.98 140.34 -97 140 C-97.96386719 137.34912109 -97.96386719 137.34912109 -98.796875 133.7734375 C-98.95128555 133.12605621 -99.10569611 132.47867493 -99.26478577 131.81167603 C-99.77239707 129.66885123 -100.26116306 127.52217847 -100.75 125.375 C-101.09878448 123.88776972 -101.44865063 122.40079272 -101.79956055 120.9140625 C-103.57283737 113.36270803 -105.27625809 105.79549799 -106.97265625 98.2265625 C-107.12924713 97.52888763 -107.28583801 96.83121277 -107.44717407 96.11239624 C-108.19165761 92.79082055 -108.92844124 89.46803033 -109.65332031 86.14208984 C-111.09693504 79.60021728 -112.73670842 73.30731108 -115 67 C-108.36723373 62.3977993 -101.50738384 58.38885313 -94.4375 54.5 C-85.965813 49.79885433 -77.54374102 45.02848622 -69.1875 40.125 C-60.49155272 35.02402935 -51.75988092 29.9900202 -43 25 C-22.40889457 13.5915792 -22.40889457 13.5915792 -2.39038086 1.26293945 C-1.60155518 0.84616943 -0.81272949 0.42939941 0 0 Z " fill="#5F4F98" transform="translate(426,231)"/>
<path d="M0 0 C4.39383706 1.59623144 8.28995807 3.78024333 12.3125 6.125 C12.95767578 6.49753906 13.60285156 6.87007812 14.26757812 7.25390625 C15.84675945 8.16632213 17.42361864 9.08275509 19 10 C19 10.66 19 11.32 19 12 C18.36835938 12.35078613 17.73671875 12.70157227 17.0859375 13.06298828 C3.33297865 20.70985139 -10.33369051 28.48090039 -23.91015625 36.4375 C-29.13400528 39.49832925 -34.37095891 42.53567021 -39.61767578 45.55712891 C-41.7800329 46.80540311 -43.93861465 48.06024146 -46.09326172 49.32177734 C-51.17879084 52.28814432 -56.27540729 55.17786835 -61.52557373 57.84098816 C-63.36799365 58.77952386 -65.19798532 59.73884181 -67.02587891 60.70532227 C-69.32516238 61.91273973 -71.64617403 63.07994315 -73.98974609 64.19897461 C-77.16548955 65.89848392 -79.4677846 67.44124203 -82 70 C-82.80110931 72.64950354 -82.80110931 72.64950354 -82.78466797 75.70922852 C-82.83214676 76.95959396 -82.87962555 78.20995941 -82.92854309 79.49821472 C-82.95498159 80.99876595 -82.97857791 82.49936878 -83 84 C-83.01750494 84.85779367 -83.03500988 85.71558735 -83.05304527 86.59937477 C-83.20176972 93.99036192 -83.26223855 101.38125615 -83.31640625 108.7734375 C-83.33701555 111.15239795 -83.35801295 113.53135507 -83.37937927 115.91030884 C-83.43418982 122.12765783 -83.48377746 128.34503758 -83.53222656 134.56243896 C-83.5827439 140.92446584 -83.63827107 147.28644885 -83.69335938 153.6484375 C-83.80043812 166.09892073 -83.90199163 178.54944229 -84 191 C-87.9051697 189.47930129 -91.4461307 187.70707958 -95.0859375 185.62109375 C-95.66019974 185.29294174 -96.23446198 184.96478973 -96.8261261 184.62669373 C-98.67777543 183.56711601 -100.52652892 182.50261116 -102.375 181.4375 C-103.64815341 180.70647339 -104.92134689 179.97551656 -106.19458008 179.24462891 C-114.85877761 174.26398239 -123.48949473 169.23984567 -132 164 C-132.9075 163.47535156 -133.815 162.95070313 -134.75 162.41015625 C-135.554375 161.92417969 -136.35875 161.43820312 -137.1875 160.9375 C-137.84105469 160.55464844 -138.49460938 160.17179688 -139.16796875 159.77734375 C-143.41208724 155.65991536 -145.22014039 150.67074001 -145.48101807 144.82397461 C-145.49250374 142.85011068 -145.48222759 140.8760407 -145.45410156 138.90234375 C-145.45468567 137.81852921 -145.45526978 136.73471466 -145.45587158 135.61805725 C-145.45309851 132.05753875 -145.42204187 128.49787116 -145.390625 124.9375 C-145.38315989 122.46029111 -145.37746823 119.98307629 -145.37347412 117.50585938 C-145.35823929 111.00217233 -145.31897538 104.49884552 -145.2746582 97.99530029 C-145.2336594 91.35237845 -145.21545326 84.70942128 -145.1953125 78.06640625 C-145.15247958 65.04411761 -145.08502833 52.02207801 -145 39 C-142 38 -142 38 -139.75439453 39.04467773 C-138.88927246 39.58552002 -138.02415039 40.1263623 -137.1328125 40.68359375 C-136.17036621 41.27833496 -135.20791992 41.87307617 -134.21630859 42.48583984 C-133.19617676 43.1298877 -132.17604492 43.77393555 -131.125 44.4375 C-130.08811035 45.07896973 -129.0512207 45.72043945 -127.98291016 46.38134766 C-123.55478922 49.12460907 -119.14695993 51.89749281 -114.765625 54.71484375 C-114.17765137 55.08875244 -113.58967773 55.46266113 -112.98388672 55.84790039 C-111.48995776 56.80161194 -110.00623511 57.77125975 -108.5234375 58.7421875 C-105.64263235 60.17813062 -104.18116371 60.27381418 -101 60 C-98.73342967 59.06156477 -98.73342967 59.06156477 -96.54296875 57.6484375 C-95.26474243 56.87741699 -95.26474243 56.87741699 -93.96069336 56.09082031 C-93.04553955 55.52459961 -92.13038574 54.95837891 -91.1875 54.375 C-89.19323382 53.16840187 -87.19842378 51.96270229 -85.203125 50.7578125 C-84.17509766 50.13293945 -83.14707031 49.50806641 -82.08789062 48.86425781 C-77.23745188 45.93589363 -72.33770312 43.09402176 -67.4375 40.25 C-65.42424618 39.07722278 -63.41123105 37.90403573 -61.3984375 36.73046875 C-59.84721191 35.82627197 -59.84721191 35.82627197 -58.26464844 34.90380859 C-42.71871595 25.83806065 -27.18828529 16.7482116 -11.75 7.5 C-10.6782251 6.85877197 -9.6064502 6.21754395 -8.50219727 5.55688477 C-7.03931274 4.67794556 -7.03931274 4.67794556 -5.546875 3.78125 C-4.26055176 3.0087793 -4.26055176 3.0087793 -2.94824219 2.22070312 C-1.07121467 1.14580219 -1.07121467 1.14580219 0 0 Z " fill="#E2B477" transform="translate(304,181)"/>
<path d="M0 0 C5.24211335 0.50563692 8.19104896 2.58591286 12.46875 5.5078125 C14.15745637 6.61801451 15.84762558 7.72599381 17.5390625 8.83203125 C18.86599121 9.70674072 18.86599121 9.70674072 20.21972656 10.59912109 C24.86326207 13.61205808 29.60481252 16.46072597 34.34375 19.3203125 C42.52754802 24.28101378 50.68308126 29.28411023 58.81469727 34.32983398 C67.22567868 39.54757422 75.65616647 44.7333959 84.08911133 49.91552734 C89.72942179 53.38305676 95.35990404 56.8645979 100.96875 60.3828125 C100.43193604 60.64255859 99.89512207 60.90230469 99.34204102 61.16992188 C96.50429163 62.62017791 93.75669745 64.19667557 90.99609375 65.7890625 C90.43177139 66.11442993 89.86744904 66.43979736 89.286026 66.77502441 C88.09815554 67.4602936 86.91061573 68.14613625 85.72338867 68.83251953 C83.90962632 69.88086101 82.094541 70.92688308 80.27929688 71.97265625 C79.12231601 72.64048673 77.96541233 73.30845094 76.80859375 73.9765625 C75.76050537 74.58177734 74.71241699 75.18699219 73.63256836 75.81054688 C71.71033382 76.94510745 69.82595883 78.14467328 67.96875 79.3828125 C67.04320312 78.83496094 66.11765625 78.28710938 65.1640625 77.72265625 C52.94777682 70.50684331 40.65898913 63.41861454 28.36376953 56.33837891 C22.89705019 53.18949196 17.43300758 50.0359687 11.96875 46.8828125 C9.82683373 45.64711667 7.6849066 44.41143967 5.54296875 43.17578125 C1.56412568 40.88031792 -2.41455773 38.58457836 -6.39303589 36.28848267 C-8.18191918 35.25607772 -9.97083717 34.22373294 -11.75976562 33.19140625 C-14.00462636 31.89595302 -16.2494219 30.6003868 -18.49414062 29.3046875 C-23.66696774 26.31973336 -28.84270009 23.34035933 -34.03125 20.3828125 C-30.99913181 17.06961308 -27.88890214 14.95400912 -23.98828125 12.74609375 C-23.41921555 12.42118454 -22.85014984 12.09627533 -22.26383972 11.76152039 C-20.46053591 10.73334108 -18.65242745 9.71400399 -16.84375 8.6953125 C-15.02536827 7.6642317 -13.20803309 6.63134798 -11.39152527 5.5969696 C-9.75224687 4.66458564 -8.11019716 3.73707911 -6.46801758 2.80981445 C-2.12908218 0.26887894 -2.12908218 0.26887894 0 0 Z " fill="#EBCA9F" transform="translate(205.03125,-0.3828125)"/>
<path d="M0 0 C8.22394569 3.99292405 16.18687571 8.29787428 24.0625 12.9375 C25.06087891 13.51951172 26.05925781 14.10152344 27.08789062 14.70117188 C45.04149843 25.22168313 56.96480751 33.68317116 62.69274902 54.71273804 C63.54840838 58.04834429 64.34321874 61.39643003 65.125 64.75 C65.46501312 66.16789575 65.80608594 67.58553779 66.14819336 69.00292969 C66.81179888 71.76073679 67.46796634 74.52013758 68.11767578 77.28125 C68.86568411 80.43389605 69.63852428 83.57773479 70.43359375 86.71875 C70.81010391 88.22911481 71.18642972 89.7395256 71.5625 91.25 C71.87316406 92.49265625 72.18382812 93.7353125 72.50390625 95.015625 C72.98562467 97.91352165 72.80110935 99.26407345 72 102 C69.35896403 100.4763254 66.71793004 98.9526474 64.0769043 97.42895508 C61.74506819 96.08368405 59.41320438 94.73846118 57.08129883 93.39331055 C51.12763695 89.95887018 45.17446122 86.5235954 39.22265625 83.0859375 C38.12550293 82.45244385 37.02834961 81.8189502 35.89794922 81.16625977 C33.8563918 79.98743502 31.81502859 78.80827382 29.77392578 77.62866211 C19.53564414 71.71805009 9.26681821 65.86085493 -1 60 C-1.02312821 52.32463373 -1.04091753 44.64927104 -1.05181217 36.97387791 C-1.05703995 33.41022578 -1.06413569 29.84659743 -1.07543945 26.28295898 C-1.08834176 22.18993903 -1.09322906 18.0969442 -1.09765625 14.00390625 C-1.10281754 12.71851456 -1.10797882 11.43312286 -1.11329651 10.10877991 C-1.11337204 8.92763107 -1.11344757 7.74648224 -1.11352539 6.52954102 C-1.115746 5.48363297 -1.11796661 4.43772491 -1.12025452 3.36012268 C-1 1 -1 1 0 0 Z " fill="#483D75" transform="translate(234,266)"/>
<path d="M0 0 C1.97170826 1.24159055 3.91788609 2.52468257 5.8359375 3.84765625 C7.66461627 4.90072744 9.50051367 5.94137237 11.34375 6.96875 C13.21825076 8.07064574 15.09057307 9.176254 16.9609375 10.28515625 C19.06996036 11.52533861 21.17934811 12.76490063 23.2890625 14.00390625 C24.36736328 14.638125 25.44566406 15.27234375 26.55664062 15.92578125 C31.92588576 19.07249787 37.31807781 22.17913955 42.7109375 25.28515625 C43.78206787 25.90269775 44.85319824 26.52023926 45.95678711 27.15649414 C52.68640431 31.03569563 59.41771815 34.91194277 66.15527344 38.77734375 C68.37772771 40.06094158 70.59343432 41.35630346 72.80175781 42.6640625 C77.3886183 45.37171216 81.85424423 47.95347981 86.80078125 49.9453125 C90.96254673 51.71831429 93.95862557 53.20584115 96.8359375 56.84765625 C98.56512889 64.7246116 97.75366879 72.904339 96.8359375 80.84765625 C93.31250174 82.82374498 89.78873123 84.7992353 86.26464844 86.77416992 C85.0656628 87.44620559 83.866769 88.11840517 82.66796875 88.79077148 C80.94555388 89.75677817 79.22278192 90.72214806 77.5 91.6875 C76.46311035 92.26878662 75.4262207 92.85007324 74.35791016 93.44897461 C72.86576451 94.27651599 71.36206289 95.08459356 69.8359375 95.84765625 C69.95227539 95.23470703 70.06861328 94.62175781 70.18847656 93.99023438 C71.32901081 86.7803323 71.85768799 79.65025519 68.8359375 72.84765625 C62.31123533 66.20900305 53.03346977 62.56787835 44.68505859 58.69189453 C38.81475878 55.93350353 33.28563166 52.5898048 27.7109375 49.28515625 C25.57049874 48.04560351 23.42856746 46.80862446 21.28515625 45.57421875 C19.13540431 44.33205264 16.98566484 43.08986494 14.8359375 41.84765625 C-0.80919211 32.80967898 -16.46645213 23.7942318 -32.1640625 14.84765625 C-32.1640625 14.18765625 -32.1640625 13.52765625 -32.1640625 12.84765625 C-28.71827995 10.53795541 -25.23852531 8.29728185 -21.71484375 6.109375 C-20.5247101 5.35811927 -19.34522268 4.58969716 -18.17773438 3.80371094 C-7.2133892 -3.54951031 -7.2133892 -3.54951031 0 0 Z " fill="#FD4757" transform="translate(176.1640625,21.15234375)"/>
<path d="M0 0 C4.39383706 1.59623144 8.28995807 3.78024333 12.3125 6.125 C12.95767578 6.49753906 13.60285156 6.87007812 14.26757812 7.25390625 C15.84675945 8.16632213 17.42361864 9.08275509 19 10 C19 10.66 19 11.32 19 12 C18.36835938 12.35078613 17.73671875 12.70157227 17.0859375 13.06298828 C3.33297865 20.70985139 -10.33369051 28.48090039 -23.91015625 36.4375 C-29.13366857 39.49813196 -34.36978293 42.53611038 -39.61743164 45.55517578 C-41.78271488 46.80634372 -43.94214129 48.06770473 -46.09545898 49.33935547 C-51.14922647 52.30696368 -56.19571322 55.14686293 -61.49963379 57.637146 C-74.36226502 62.98039187 -74.36226502 62.98039187 -83.31347656 72.80371094 C-84.90877104 79.19518106 -84.83607963 85.49587097 -84 92 C-92.90705361 87.69329276 -101.44389468 82.96254108 -110 78 C-110 71.4 -110 64.8 -110 58 C-108.68 58.66 -107.36 59.32 -106 60 C-102.06526339 60.43300371 -99.88387043 59.6974079 -96.54296875 57.6484375 C-95.69081787 57.13442383 -94.83866699 56.62041016 -93.96069336 56.09082031 C-93.04553955 55.52459961 -92.13038574 54.95837891 -91.1875 54.375 C-89.19323382 53.16840187 -87.19842378 51.96270229 -85.203125 50.7578125 C-84.17509766 50.13293945 -83.14707031 49.50806641 -82.08789062 48.86425781 C-77.23745188 45.93589363 -72.33770312 43.09402176 -67.4375 40.25 C-65.42424618 39.07722278 -63.41123105 37.90403573 -61.3984375 36.73046875 C-59.84721191 35.82627197 -59.84721191 35.82627197 -58.26464844 34.90380859 C-42.71871595 25.83806065 -27.18828529 16.7482116 -11.75 7.5 C-10.6782251 6.85877197 -9.6064502 6.21754395 -8.50219727 5.55688477 C-7.52694092 4.97092529 -6.55168457 4.38496582 -5.546875 3.78125 C-4.68932617 3.26626953 -3.83177734 2.75128906 -2.94824219 2.22070312 C-1.07121467 1.14580219 -1.07121467 1.14580219 0 0 Z " fill="#FD4857" transform="translate(304,181)"/>
<path d="M0 0 C1.09223376 1.15533093 2.18441078 2.31071553 3.27636719 3.46630859 C7.19687917 6.95478682 12.06684242 9.26347729 16.625 11.8125 C18.98264538 13.15083772 21.3394152 14.49062776 23.6953125 15.83203125 C24.2997821 16.17517365 24.90425171 16.51831604 25.52703857 16.87185669 C31.90171323 20.49651182 38.20187008 24.24420492 44.5 28 C54.55316849 33.98484402 64.66131934 39.86519653 74.81713867 45.67407227 C79.74517962 48.50295695 84.63764104 51.36560529 89.453125 54.3828125 C90.28126709 54.90125732 91.10940918 55.41970215 91.96264648 55.95385742 C93.47660628 56.90973625 94.98448768 57.87534563 96.48461914 58.8527832 C101.39290486 61.99907078 101.39290486 61.99907078 107 62 C109.69171957 60.72386923 109.69171957 60.72386923 112.25 59 C116.94444444 56 116.94444444 56 118 56 C118.03867187 57.2684375 118.03867187 57.2684375 118.078125 58.5625 C118.13484375 59.696875 118.1915625 60.83125 118.25 62 C118.29640625 63.11375 118.3428125 64.2275 118.390625 65.375 C119.33924304 71.01806116 120.65824648 75.13096385 125.25195312 78.79736328 C128.1539432 80.66976768 131.10887342 82.38012869 134.125 84.0625 C135.21780273 84.69446289 136.31060547 85.32642578 137.43652344 85.97753906 C139.75340668 87.31438003 142.0730208 88.64304236 144.40136719 89.95947266 C148.03456415 92.01478804 151.64771813 94.10365437 155.2578125 96.19921875 C160.64323671 99.32286797 166.03869268 102.42855678 171.44238281 105.52050781 C172.28639648 106.00874023 173.13041016 106.49697266 174 107 C174.92780273 107.48178711 175.85560547 107.96357422 176.81152344 108.45996094 C177.89481934 109.22228027 177.89481934 109.22228027 179 110 C179.3125 113.6875 179.3125 113.6875 179 117 C170.56847941 112.60628185 162.26954552 108.04800533 154.09375 103.19458008 C147.61262064 99.34927221 141.09254236 95.57408303 134.5625 91.8125 C133.45753174 91.17570312 132.35256348 90.53890625 131.21411133 89.8828125 C127.80971919 87.92133341 124.40490345 85.96059137 121 84 C116.62449212 81.48004706 112.24943866 78.95930859 107.875 76.4375 C106.79661865 75.81584961 105.7182373 75.19419922 104.60717773 74.55371094 C96.44994017 69.84688123 88.3165232 65.10016682 80.18798828 60.34399414 C71.81246896 55.45289417 63.38736699 50.65085052 54.9571228 45.85507202 C46.3864728 40.97602331 37.89535935 35.98010028 29.45776367 30.87451172 C24.68333104 27.99102732 19.86926034 25.23457072 14.95092773 22.60229492 C12.202381 21.10988885 9.48625191 19.57467636 6.77734375 18.01171875 C5.82980225 17.46708984 4.88226074 16.92246094 3.90600586 16.36132812 C1.99280116 15.25934279 0.08081982 14.15523036 -1.82983398 13.04882812 C-2.71098877 12.54158203 -3.59214355 12.03433594 -4.5 11.51171875 C-5.69109375 10.82275513 -5.69109375 10.82275513 -6.90625 10.11987305 C-9.08931507 8.8765676 -9.08931507 8.8765676 -12 8 C-10.95505436 4.74905801 -9.40864509 3.43126714 -6.5625 1.75 C-3 0 -3 0 0 0 Z " fill="#4C3F76" transform="translate(41,262)"/>
<path d="M0 0 C3.80606558 33.55681155 3.80606558 33.55681155 -2.27490234 42.25341797 C-8.26446968 47.47874684 -16.07402619 51.743605 -24 53 C-27.6091948 51.95926525 -30.72822257 50.11658808 -33.9765625 48.25 C-34.894375 47.7240625 -35.8121875 47.198125 -36.7578125 46.65625 C-37.70398438 46.1096875 -38.65015625 45.563125 -39.625 45 C-41.05585937 44.18015625 -41.05585937 44.18015625 -42.515625 43.34375 C-46.07097811 41.30067385 -49.58711974 39.27525351 -53 37 C-54.65549531 36.61500109 -56.3222433 36.27206865 -58 36 C-55.35003871 33.18382723 -52.81531303 31.10937265 -49.46484375 29.1875 C-48.58223877 28.67525879 -47.69963379 28.16301758 -46.7902832 27.63525391 C-45.37815552 26.82580322 -45.37815552 26.82580322 -43.9375 26 C-36.48146137 21.66312944 -29.09290502 17.25127521 -21.8125 12.625 C-21.03326172 12.13032227 -20.25402344 11.63564453 -19.45117188 11.12597656 C-16.10667837 8.99648607 -12.77073508 6.85445507 -9.4453125 4.6953125 C-8.45273438 4.05335937 -7.46015625 3.41140625 -6.4375 2.75 C-5.61121094 2.20859375 -4.78492188 1.6671875 -3.93359375 1.109375 C-2 0 -2 0 0 0 Z " fill="#EBCA9F" transform="translate(98,108)"/>
<path d="M0 0 C0.80377896 4.89137281 1.01674262 9.12904212 0 14 C-2.45947266 16.21655273 -2.45947266 16.21655273 -5.7265625 17.99609375 C-6.31025101 18.32463852 -6.89393951 18.65318329 -7.49531555 18.99168396 C-8.7167212 19.67689569 -9.94435412 20.35111524 -11.17770386 21.0145874 C-13.98187323 22.53095116 -16.72523325 24.15076092 -19.48046875 25.75390625 C-21.71499465 27.02546262 -23.9507093 28.29493186 -26.1875 29.5625 C-28.63994799 30.95723601 -31.09142629 32.35367311 -33.54296875 33.75 C-34.4687825 34.27691185 -34.4687825 34.27691185 -35.41329956 34.81446838 C-41.95602642 38.53987187 -48.47955377 42.2982707 -55 46.0625 C-56.54530396 46.95400757 -56.54530396 46.95400757 -58.12182617 47.86352539 C-62.21446495 50.22674897 -66.30553737 52.59145125 -70.37890625 54.98779297 C-72.01666016 55.95096436 -72.01666016 55.95096436 -73.6875 56.93359375 C-74.68136719 57.52068115 -75.67523438 58.10776855 -76.69921875 58.71264648 C-79 60 -79 60 -80 60 C-80 55.05 -80 50.1 -80 45 C-78.28039062 44.01902344 -76.56078125 43.03804688 -74.7890625 42.02734375 C-62.76406619 35.1640042 -50.74447835 28.29157753 -38.75 21.375 C-37.6995752 20.76962402 -36.64915039 20.16424805 -35.56689453 19.54052734 C-30.06759216 16.36606456 -24.58088182 13.17133907 -19.109375 9.94921875 C-17.99981445 9.29711426 -16.89025391 8.64500977 -15.74707031 7.97314453 C-13.62434399 6.72408767 -11.50380163 5.47130984 -9.38574219 4.21435547 C-8.44375977 3.66021973 -7.50177734 3.10608398 -6.53125 2.53515625 C-5.70173828 2.044104 -4.87222656 1.55305176 -4.01757812 1.04711914 C-2 0 -2 0 0 0 Z " fill="#433A6C" transform="translate(467,381)"/>
<path d="M0 0 C3.80241571 1.52096628 7.36474615 3.14010268 11 5 C11.05462412 18.08263362 11.06639675 31.16453505 11.02334595 44.24723339 C11.00470472 50.32206109 11.00086726 56.39614913 11.03076172 62.47094727 C11.05906533 68.33280863 11.04861301 74.1934336 11.01119995 80.05523109 C11.00374903 82.2923386 11.01030256 84.52953768 11.03103638 86.76656151 C11.05768878 89.89939825 11.0347058 93.02821461 11 96.16088867 C11.01941147 97.08733688 11.03882294 98.0137851 11.05882263 98.9683075 C10.91962446 105.111659 10.91962446 105.111659 8.22265625 107.71688271 C3.1498858 111 3.1498858 111 0 111 C0 74.37 0 37.74 0 0 Z " fill="#CD8544" transform="translate(149,212)"/>
<path d="M0 0 C0.02505615 0.95890137 0.0501123 1.91780273 0.07592773 2.90576172 C0.1699862 6.45798477 0.27021058 10.01001156 0.37231445 13.56201172 C0.41566926 15.10037653 0.45734395 16.63878963 0.49731445 18.17724609 C0.55500398 20.3865414 0.61870179 22.59559348 0.68359375 24.8046875 C0.70030624 25.49432587 0.71701874 26.18396423 0.73423767 26.89450073 C0.80806995 30.57114264 0.80806995 30.57114264 2 34 C2.08308638 35.37548156 2.10736016 36.75485796 2.09765625 38.1328125 C2.09443359 38.93847656 2.09121094 39.74414062 2.08789062 40.57421875 C2.07951172 41.41597656 2.07113281 42.25773437 2.0625 43.125 C2.05798828 43.97449219 2.05347656 44.82398438 2.04882812 45.69921875 C2.03702874 47.79950909 2.01909306 49.8997633 2 52 C-2.97552117 50.22087425 -7.46576933 47.63355274 -12.0625 45.0625 C-12.86494141 44.61970703 -13.66738281 44.17691406 -14.49414062 43.72070312 C-15.27080078 43.28822266 -16.04746094 42.85574219 -16.84765625 42.41015625 C-17.54898682 42.01965088 -18.25031738 41.62914551 -18.97290039 41.22680664 C-24.80132908 37.69942447 -24.80132908 37.69942447 -25.66040039 34.67504883 C-26.88265776 16.93399101 -26.88265776 16.93399101 -23.86767578 12.23535156 C-20.4859578 9.1025447 -16.2343834 7.63505894 -12 6 C-10.08161108 4.870806 -8.18259898 3.70748704 -6.3125 2.5 C-2.25 0 -2.25 0 0 0 Z " fill="#AC2E38" transform="translate(98,147)"/>
<path d="M0 0 C6.07774732 1.35728349 9.80806124 6.02753649 13.36328125 10.8125 C17.5762916 17.67776868 19.92923617 25.41172815 18.9765625 33.44140625 C18.00374823 36.91274349 16.6240693 39.70139847 14.2265625 42.44140625 C10.7920513 43.96785567 8.57194961 43.37124774 4.9765625 42.44140625 C-2.30175674 38.95387828 -7.07494629 31.50724226 -9.9609375 24.12890625 C-11.72401506 17.89714784 -12.57289514 10.41547816 -10.1796875 4.27734375 C-7.54506114 0.52122104 -4.47725877 -0.39406585 0 0 Z " fill="#AA9CDC" transform="translate(143.0234375,362.55859375)"/>
<path d="M0 0 C6.23888555 0.90747426 10.58633336 4.1965597 14.5 9.06640625 C20.185567 17.58291182 22.30363342 25.24780847 21.4375 35.5 C20.49816405 38.89606073 19.46596367 41.58197301 16.4375 43.5 C11.91152619 44.01937404 9.49601055 43.99685189 5.375 42.0625 C-2.85951511 34.87919958 -7.45544214 26.61462 -8.94140625 15.72265625 C-9.20184001 10.135932 -8.28838087 6.88338926 -4.5625 2.5 C-2.5625 0.5 -2.5625 0.5 0 0 Z " fill="#AA9CDB" transform="translate(285.5625,445.5)"/>
<path d="M0 0 C7.25934065 3.70374523 11.88229857 10.6159703 15 18 C16.64786422 24.79888036 17.08313754 32.09522205 14.625 38.6875 C13 41 13 41 11 42 C6.03892798 42.59875007 3.0514088 42.47620216 -1.125 39.625 C-7.30875495 34.47592846 -11.67982297 26.92106219 -13 19 C-13.93463946 6.41157482 -13.93463946 6.41157482 -11.1015625 2.1328125 C-7.34449452 -1.68012266 -5.13393849 -1.11235334 0 0 Z " fill="#AC9EDD" transform="translate(81,326)"/>
<path d="M0 0 C3.4375 1.25 3.4375 1.25 6 3 C3.5849251 5.67813752 0.98947088 7.3043511 -2.13671875 9.08203125 C-3.69616211 9.97438477 -3.69616211 9.97438477 -5.28710938 10.88476562 C-6.40923828 11.52091797 -7.53136719 12.15707031 -8.6875 12.8125 C-10.46333743 13.82652174 -12.23815984 14.84230529 -14.01296997 15.85812378 C-15.22641774 16.55246591 -16.44018655 17.24624725 -17.65426636 17.93948364 C-23.45849256 21.25491901 -29.23135466 24.6230788 -35 28 C-42.22643896 32.22412724 -49.4633369 36.42924144 -56.71630859 40.60766602 C-58.89214999 41.86156539 -61.06696892 43.1172408 -63.24072266 44.37475586 C-68.75528692 47.5639165 -74.28245391 50.72669682 -79.8359375 53.84765625 C-82.01564863 55.08589591 -84.19533699 56.32417564 -86.375 57.5625 C-87.385625 58.12195313 -88.39625 58.68140625 -89.4375 59.2578125 C-94.72751145 62.28171711 -98.09552178 64.60481001 -101 70 C-101.33 70 -101.66 70 -102 70 C-103.16928733 65.98009717 -103.34422722 62.99690374 -102 59 C-97.68859249 55.35143473 -92.81614162 52.99528875 -87.79443359 50.453125 C-82.571491 47.73715835 -77.5215382 44.71531135 -72.4375 41.75 C-70.1842046 40.45076293 -67.93029396 39.15259232 -65.67578125 37.85546875 C-59.47826078 34.281455 -53.29968958 30.67576798 -47.125 27.0625 C-34.73813009 19.81809574 -22.29210386 12.67521988 -9.80249023 5.609375 C-8.10693682 4.63567624 -6.4227208 3.64130224 -4.76196289 2.609375 C-2.90625 1.4609375 -2.90625 1.4609375 0 0 Z " fill="#E9C9A0" transform="translate(323,192)"/>
<path d="M0 0 C2.36662973 19.57142103 2.36662973 19.57142103 -1.29492188 24.87597656 C-4.73682468 27.87395904 -8.77811427 29.58082275 -13.00683594 31.203125 C-15.96953803 32.3876252 -18.6746561 33.97548784 -21.4375 35.5625 C-22.95640792 36.37859375 -24.47690208 37.19175312 -26 38 C-26.26260373 34.29302295 -26.42156838 30.58843642 -26.5625 26.875 C-26.63791016 25.82828125 -26.71332031 24.7815625 -26.79101562 23.703125 C-27.00748095 16.10278701 -27.00748095 16.10278701 -24.25537109 13.09033203 C-21.90847182 11.50324584 -19.54635197 10.23924601 -17 9 C-15.54761408 8.15608264 -14.09946279 7.30482294 -12.65625 6.4453125 C-11.27291498 5.66815799 -9.88751021 4.89467547 -8.5 4.125 C-7.78585937 3.7228125 -7.07171875 3.320625 -6.3359375 2.90625 C-1.13632015 0 -1.13632015 0 0 0 Z " fill="#AB2C37" transform="translate(272,79)"/>
<path d="M0 0 C1.98 0.99 1.98 0.99 4 2 C5.61261719 1.92458984 5.61261719 1.92458984 7.2578125 1.84765625 C12.13980306 2.04640117 14.86094809 3.82360651 18.875 6.4375 C19.55046875 6.85837891 20.2259375 7.27925781 20.921875 7.71289062 C25.73010024 10.73010024 25.73010024 10.73010024 27 12 C27.34067242 19.38457563 27.16803601 26.69977492 26 34 C17.09294639 29.69329276 8.55610532 24.96254108 0 20 C0 13.4 0 6.8 0 0 Z " fill="#AC2E38" transform="translate(194,239)"/>
<path d="M0 0 C1 1 1 1 1.11352539 2.76586914 C1.10828857 3.51473389 1.10305176 4.26359863 1.09765625 5.03515625 C1.09443359 5.84404297 1.09121094 6.65292969 1.08789062 7.48632812 C1.07951172 8.33646484 1.07113281 9.18660156 1.0625 10.0625 C1.05798828 10.91650391 1.05347656 11.77050781 1.04882812 12.65039062 C1.03700373 14.76695663 1.01906769 16.88348685 1 19 C-2.76491091 21.17708323 -6.5378518 23.33985035 -10.3125 25.5 C-11.38435547 26.12003906 -12.45621094 26.74007813 -13.56054688 27.37890625 C-14.58857422 27.96542969 -15.61660156 28.55195313 -16.67578125 29.15625 C-17.62364502 29.70087891 -18.57150879 30.24550781 -19.5480957 30.80664062 C-22 32 -22 32 -25 32 C-25 25.07 -25 18.14 -25 11 C-22.34349918 9.55405652 -19.68660476 8.10882961 -17.02734375 6.66796875 C-15.15081047 5.63405945 -13.2860053 4.57814359 -11.44140625 3.48828125 C-10.67699219 3.03839844 -9.91257812 2.58851563 -9.125 2.125 C-8.44695312 1.71507812 -7.76890625 1.30515625 -7.0703125 0.8828125 C-4.56738815 -0.18447222 -2.69510742 -0.22839893 0 0 Z " fill="#FCFDFE" transform="translate(385,424)"/>
<path d="M0 0 C1.62402728 17.65192723 1.62402728 17.65192723 -1.875 22.7109375 C-4.51169838 24.53190732 -7.03783238 25.78310952 -10 27 C-11.87753851 27.97429025 -13.75268981 28.95319979 -15.625 29.9375 C-17.07936412 30.63335729 -18.53622174 31.32417046 -20 32 C-20.10852923 29.12397545 -20.1875515 26.25209168 -20.25 23.375 C-20.28351563 22.56675781 -20.31703125 21.75851562 -20.3515625 20.92578125 C-20.44072552 15.44225527 -19.82344951 12.22915316 -16 8 C-13.7375925 6.30113515 -11.37196883 4.94813606 -8.875 3.625 C-8.24207031 3.27050781 -7.60914063 2.91601562 -6.95703125 2.55078125 C-2.31835183 0 -2.31835183 0 0 0 Z " fill="#E4E1F6" transform="translate(488,363)"/>
<path d="M0 0 C0.90621094 0.51949219 1.81242187 1.03898437 2.74609375 1.57421875 C9.47339291 5.42684075 16.20778253 9.26248351 23 13 C21.68653751 16.94038746 20.20111085 17.30110887 16.609375 19.28515625 C15.50722656 19.89810547 14.40507812 20.51105469 13.26953125 21.14257812 C12.69154785 21.45783447 12.11356445 21.77309082 11.51806641 22.09790039 C9.76593757 23.05380498 8.0215852 24.02391858 6.27734375 24.99414062 C1.58789247 27.58453019 -2.97931769 30.10717284 -8 32 C-7.66226562 31.50371094 -7.32453125 31.00742187 -6.9765625 30.49609375 C-6.30753906 29.47708984 -6.30753906 29.47708984 -5.625 28.4375 C-4.96371094 27.44556641 -4.96371094 27.44556641 -4.2890625 26.43359375 C-1.17051789 20.54615953 -0.64304781 14.57941229 -0.375 8.0625 C-0.31699219 6.89364258 -0.31699219 6.89364258 -0.2578125 5.70117188 C-0.16455873 3.80112621 -0.08124038 1.90059722 0 0 Z " fill="#322A51" transform="translate(322,477)"/>
<path d="M0 0 C8.03104595 3.86129947 15.74993985 7.76384545 23 13 C20.5844688 15.68231075 17.98715934 17.29949605 14.8515625 19.06640625 C13.34335938 19.9181543 13.34335938 19.9181543 11.8046875 20.78710938 C10.75539062 21.37298828 9.70609375 21.95886719 8.625 22.5625 C7.5834375 23.15224609 6.541875 23.74199219 5.46875 24.34960938 C1.04400412 26.83640709 -3.24373519 29.20310529 -8 31 C-7.66226563 30.45472656 -7.32453125 29.90945313 -6.9765625 29.34765625 C-1.35033907 19.83511086 -0.641309 10.91912947 0 0 Z " fill="#322A50" transform="translate(177,394)"/>
<path d="M0 0 C0 9.24 0 18.48 0 28 C-5.25891989 25.89643204 -9.9211074 23.32321989 -14.8125 20.5 C-15.69615234 20.00113281 -16.57980469 19.50226563 -17.49023438 18.98828125 C-18.74223633 18.26705078 -18.74223633 18.26705078 -20.01953125 17.53125 C-20.78370361 17.09361328 -21.54787598 16.65597656 -22.33520508 16.20507812 C-22.8845874 15.80740234 -23.43396973 15.40972656 -24 15 C-24 14.34 -24 13.68 -24 13 C-22.01220703 11.57958984 -22.01220703 11.57958984 -19.2578125 9.9609375 C-18.27425781 9.38085938 -17.29070312 8.80078125 -16.27734375 8.203125 C-15.23707031 7.59984375 -14.19679688 6.9965625 -13.125 6.375 C-12.09246094 5.76398438 -11.05992188 5.15296875 -9.99609375 4.5234375 C-2.27192034 0 -2.27192034 0 0 0 Z " fill="#FD4756" transform="translate(98,147)"/>
<path d="M0 0 C4.95881891 0.49588189 9.14077132 1.61164895 14 3 C14 9.6 14 16.2 14 23 C14.66 23.33 15.32 23.66 16 24 C12.8599066 25.70112666 11.42373777 26.09569987 7.88671875 25.296875 C4.18299519 23.50606361 1.74544103 22.09720066 -1 19 C-2.57131831 13.15938802 -1.81082104 6.91350683 -1 1 C-0.67 0.67 -0.34 0.34 0 0 Z " fill="#C3B9EA" transform="translate(346,433)"/>
<path d="M0 0 C6.23888555 0.90747426 10.58633336 4.1965597 14.5 9.06640625 C20.185567 17.58291182 22.30363342 25.24780847 21.4375 35.5 C20.49816405 38.89606073 19.46596367 41.58197301 16.4375 43.5 C11.68792696 44.04503297 9.44493341 44.02309042 5.1875 41.8125 C2.51764932 39.56739829 0.47582853 37.32230104 -1.5625 34.5 C1.85177122 34.5 2.23969787 34.92250858 4.75 37 C7.33785859 38.92584825 8.38697885 39.49222751 11.6875 40 C14.72543571 39.44764805 15.68110737 38.99592637 17.4375 36.5 C19.82244536 29.34516391 18.32072979 22.28849999 15.4375 15.5 C12.72189333 10.88815075 9.60875287 6.39192178 4.4375 4.5 C0.79924137 4.24588432 0.79924137 4.24588432 -2.5625 5.5 C-5.66982211 9.189945 -5.71153442 12.32126368 -5.375 16.9375 C-4.8385953 21.3002582 -3.95098015 25.33455955 -2.5625 29.5 C-3.2225 29.5 -3.8825 29.5 -4.5625 29.5 C-7.5085914 22.58194608 -9.9180587 16.08847074 -8.5625 8.5 C-4.47689689 0.87354086 -4.47689689 0.87354086 0 0 Z " fill="#AE9EE6" transform="translate(285.5625,445.5)"/>
<path d="M0 0 C4.242406 0.74973554 5.89367059 2.50753193 8.5390625 5.77734375 C12.85550108 12.34433186 14.58646459 19.22934416 14 27 C7.74488845 24.19598448 4.31264476 19.24789522 1.625 13.0625 C-0.06399422 8.50500733 -0.35739982 4.82489754 0 0 Z " fill="#5C4D91" transform="translate(81,330)"/>
<path d="M0 0 C5.63405512 1.60973003 8.35403167 5.20506028 11.203125 10.04296875 C14.07588418 15.75814106 14.47569247 20.67064746 14 27 C7.47233708 24.05973804 4.17067413 19.06278402 1.625 12.5 C0.16392998 8.12282743 -0.40735592 4.58275407 0 0 Z " fill="#5C4D91" transform="translate(145,367)"/>
<path d="M0 0 C6.3299567 1.982878 8.82820409 6.4330077 12 12 C13.99472666 16.90807743 14.21779541 21.77291019 14 27 C7.96939563 25.0477196 5.92821736 21.39364174 3 16 C0.58890199 10.59302275 -0.37650225 5.89853524 0 0 Z " fill="#5C4D91" transform="translate(291,451)"/>
<path d="M0 0 C2.475 0.99 2.475 0.99 5 2 C4.98839844 2.75023437 4.97679688 3.50046875 4.96484375 4.2734375 C4.9062171 10.92337417 5.18230692 17.40004873 6 24 C4.04754815 25.19714555 2.08785003 26.38248074 0.125 27.5625 C-0.96554688 28.22378906 -2.05609375 28.88507813 -3.1796875 29.56640625 C-4.11039062 30.03949219 -5.04109375 30.51257813 -6 31 C-6.66 30.67 -7.32 30.34 -8 30 C-7.401875 29.34 -6.80375 28.68 -6.1875 28 C0.04208955 19.4565629 -0.33488764 10.16210769 0 0 Z " fill="#332B53" transform="translate(112,357)"/>
<path d="M0 0 C5.75279159 0.83676969 10.3914924 4.24895539 14.26953125 8.515625 C14.65496094 9.17046875 15.04039062 9.8253125 15.4375 10.5 C15.1075 11.49 14.7775 12.48 14.4375 13.5 C13.715625 12.571875 12.99375 11.64375 12.25 10.6875 C9.88912551 7.89677442 7.89082775 5.89777552 4.4375 4.5 C0.79924137 4.24588432 0.79924137 4.24588432 -2.5625 5.5 C-5.66982211 9.189945 -5.71153442 12.32126368 -5.375 16.9375 C-4.8385953 21.3002582 -3.95098015 25.33455955 -2.5625 29.5 C-3.2225 29.5 -3.8825 29.5 -4.5625 29.5 C-7.5085914 22.58194608 -9.9180587 16.08847074 -8.5625 8.5 C-4.47689689 0.87354086 -4.47689689 0.87354086 0 0 Z " fill="#C1B8DF" transform="translate(285.5625,445.5)"/>
<path d="M0 0 C1.65 0 3.3 0 5 0 C5 6.6 5 13.2 5 20 C5.66 20.33 6.32 20.66 7 21 C5.35 21.66 3.7 22.32 2 23 C0 21 0 21 -0.22705078 18.84521484 C-0.21657715 17.97590332 -0.20610352 17.1065918 -0.1953125 16.2109375 C-0.18886719 15.26992188 -0.18242187 14.32890625 -0.17578125 13.359375 C-0.15902344 12.37453125 -0.14226562 11.3896875 -0.125 10.375 C-0.11597656 9.38242187 -0.10695313 8.38984375 -0.09765625 7.3671875 C-0.07404116 4.91121866 -0.04110799 2.45572832 0 0 Z " fill="#D6D0F0" transform="translate(355,436)"/>
<path d="M0 0 C5.8641187 1.33905073 9.67340301 5.73749823 12.984375 10.453125 C12.654375 11.443125 12.324375 12.433125 11.984375 13.453125 C11.62085938 12.98261719 11.25734375 12.51210938 10.8828125 12.02734375 C7.65854136 8.03420795 4.9833929 5.15491833 -0.015625 3.453125 C-2.70368307 3.35696404 -2.70368307 3.35696404 -5.015625 4.453125 C-8.66448045 8.33880521 -8.38397757 11.51311622 -8.25390625 16.61328125 C-7.93457574 20.41907272 -7.11826158 23.80064133 -6.015625 27.453125 C-6.675625 27.453125 -7.335625 27.453125 -8.015625 27.453125 C-11.26639338 20.5452422 -12.04023789 14.04905322 -11.015625 6.453125 C-9.02938959 1.34960345 -5.51003887 -0.4557175 0 0 Z " fill="#D2CCE8" transform="translate(143.015625,362.546875)"/>
<path d="M0 0 C5.22789912 2.66729547 9.25560445 6.79953062 12 12 C11.67 12.99 11.34 13.98 11 15 C10.55269531 14.38511719 10.10539062 13.77023437 9.64453125 13.13671875 C5.25269034 6.97809733 5.25269034 6.97809733 -1 3 C-4.16714972 2.69836669 -5.95724308 2.98574769 -9 4 C-9 4.66 -9 5.32 -9 6 C-9.99 6 -10.98 6 -12 6 C-11.64267506 3.40939422 -11.1383604 2.15432506 -9.375 0.1875 C-5.86917194 -1.56541403 -3.74851799 -0.96944431 0 0 Z " fill="#CBC3E2" transform="translate(81,326)"/>
<path d="M0 0 C0.99 0 1.98 0 3 0 C3.06058594 1.27617187 3.12117188 2.55234375 3.18359375 3.8671875 C3.26799568 5.53647016 3.35264386 7.20574037 3.4375 8.875 C3.47681641 9.71675781 3.51613281 10.55851562 3.55664062 11.42578125 C3.59853516 12.23144531 3.64042969 13.03710938 3.68359375 13.8671875 C3.72025146 14.61081543 3.75690918 15.35444336 3.79467773 16.12060547 C3.89955865 18.08864312 3.89955865 18.08864312 5 20 C3.35 20.33 1.7 20.66 0 21 C0 14.07 0 7.14 0 0 Z " fill="#EBE9F8" transform="translate(360,435)"/>
<path d="M0 0 C4.03158847 3.51211208 4.96839686 7.89213165 6 13 C6.21842299 16.35370297 6.19267391 19.6460467 6 23 C5.01 23.33 4.02 23.66 3 24 C3.03480469 23.32195312 3.06960938 22.64390625 3.10546875 21.9453125 C3.283103 15.83807779 2.67985799 10.8647802 0.65625 5.09375 C0 3 0 3 0 0 Z " fill="#B6A9E7" transform="translate(301,458)"/>
<path d="M0 0 C1.98 0.495 1.98 0.495 4 1 C3.01 2.485 3.01 2.485 2 4 C1.27493524 10.60022183 2.0940088 16.68640414 4 23 C3.34 23 2.68 23 2 23 C-1.28608699 16.01706515 -1.56461743 9.66576747 -1 2 C-0.67 1.34 -0.34 0.68 0 0 Z " fill="#C1B6E3" transform="translate(133,367)"/>
<path d="M0 0 C3.93081386 4.61443366 4.13372956 8.90044652 4.0625 14.8125 C4.05347656 15.78832031 4.04445313 16.76414062 4.03515625 17.76953125 C4.02355469 18.50558594 4.01195313 19.24164063 4 20 C3.01 20.33 2.02 20.66 1 21 C1.02320312 20.2265625 1.04640625 19.453125 1.0703125 18.65625 C1.17979241 12.33769497 0.71663839 7.06545563 -1 1 C-0.67 0.67 -0.34 0.34 0 0 Z " fill="#B2A6DF" transform="translate(93,340)"/>
<path d="M0 0 C1.65 1.65 3.3 3.3 5 5 C3.07423885 7.43929746 1.19909405 9.80090595 -1 12 C-1.02687279 10.18757948 -1.04633715 8.37504767 -1.0625 6.5625 C-1.07410156 5.55316406 -1.08570313 4.54382813 -1.09765625 3.50390625 C-1 1 -1 1 0 0 Z " fill="#E2B683" transform="translate(222,250)"/>
<path d="M0 0 C3.35882075 1.41231461 5.13329047 3.03368978 7.3125 5.9375 C8.11107422 6.97197266 8.11107422 6.97197266 8.92578125 8.02734375 C9.28027344 8.67832031 9.63476562 9.32929688 10 10 C9.67 10.99 9.34 11.98 9 13 C7.87064804 11.58680023 6.74669374 10.16928595 5.625 8.75 C4.99851562 7.96109375 4.37203125 7.1721875 3.7265625 6.359375 C2.21089263 4.28818811 1.05780366 2.32930503 0 0 Z " fill="#C2B9DF" transform="translate(83,328)"/>
<path d="M0 0 C4.29951803 1.59241408 6.39671947 4.35540725 9 8 C8.67 8.99 8.34 9.98 8 11 C7.60167969 10.52949219 7.20335937 10.05898438 6.79296875 9.57421875 C6.26316406 8.95160156 5.73335937 8.32898438 5.1875 7.6875 C4.66542969 7.07261719 4.14335937 6.45773437 3.60546875 5.82421875 C2.12827531 4.14575321 0.59960869 2.56117966 -1 1 C-0.67 0.67 -0.34 0.34 0 0 Z " fill="#C2BADF" transform="translate(147,365)"/>
<path d="M0 0 C3.01246242 1.50623121 3.36585787 3.85583487 4.46875 6.921875 C5.14032349 9.54891247 4.8765333 11.45008494 4 14 C3.67 14 3.34 14 3 14 C2.79503906 13.31292969 2.59007812 12.62585938 2.37890625 11.91796875 C2.10949219 11.01691406 1.84007812 10.11585938 1.5625 9.1875 C1.16224609 7.84751953 1.16224609 7.84751953 0.75390625 6.48046875 C0.19612127 4.64526945 -0.39344575 2.81966274 -1 1 C-0.67 0.67 -0.34 0.34 0 0 Z " fill="#B2A7DA" transform="translate(156,375)"/>
<path d="M0 0 C2.7330836 2.36039038 4.00684499 4.52395748 5 8 C4.625 10.8125 4.625 10.8125 4 13 C3.67 13 3.34 13 3 13 C2.49487756 11.39743892 1.99608373 9.79288208 1.5 8.1875 C1.2215625 7.29417969 0.943125 6.40085937 0.65625 5.48046875 C0 3 0 3 0 0 Z " fill="#B1A5D7" transform="translate(301,458)"/>
</svg>
